#!OML:ASF F:\VICON\USERDATA\INSTALL\rory3\rory3.ASF
:FULLY-SPECIFIED
:DEGREES
1369
root 2.91734 18.6706 4.37021 10.3078 -8.15771 -4.67058
lowerback -3.27967 -1.73796 -0.143979
upperback -3.53201 -2.31279 0.944685
thorax -1.74185 -1.1463 1.00952
lowerneck -10.7069 -1.91919 -4.4579
upperneck 37.21 -2.63474 1.88691
head 14.748 -1.60093 1.14839
rclavicle -2.73267e-014 -7.15625e-015
rhumerus -49.5028 8.79424 -79.7125
rradius 85.9931
rwrist 9.90859
rhand -27.6384 -37.6267
rfingers 7.12502
rthumb -1.03665 -787.604
lclavicle -2.73267e-014 -7.15625e-015
lhumerus -47.2011 -10.5924 81.6716
lradius 69.3965
lwrist -4.04436
lhand -30.9808 -41.5218
lfingers 7.12502
lthumb -4.2646 -11.5848
rfemur -69.6597 9.75702 25.0761
rtibia 116.709
rfoot -2.80787 -14.0681
rtoes 2.83434
lfemur -24.3909 -4.37157 -19.4487
ltibia 24.8881
lfoot 4.53279 5.37445
ltoes -8.01572
1370
root 2.93005 18.5196 4.41811 10.0202 -8.29489 -4.4133
lowerback -3.01941 -1.79112 -0.198173
upperback -3.62498 -2.38294 0.870798
thorax -1.98287 -1.18007 0.974114
lowerneck -10.7616 -1.74961 -4.14703
upperneck 37.258 -2.28934 1.42244
head 14.7562 -1.47236 0.952778
rclavicle 2.34162e-014 -2.38542e-015
rhumerus -49.4086 8.57391 -80.313
rradius 85.3717
rwrist 9.27522
rhand -25.271 -31.6275
rfingers 7.12502
rthumb 1.24982 -781.604
lclavicle 2.34162e-014 -2.38542e-015
lhumerus -47.7292 -10.0073 81.5103
lradius 69.3144
lwrist -4.29897
lhand -30.7865 -42.1613
lfingers 7.12502
lthumb -4.07699 -12.2206
rfemur -69.9911 9.88699 24.9734
rtibia 117.267
rfoot -3.2024 -14.6091
rtoes 2.4608
lfemur -24.9425 -3.64584 -19.8912
ltibia 26.2362
lfoot 5.14693 5.46794
ltoes -6.4985
1371
root 2.93821 18.3077 4.46117 9.63459 -8.52397 -4.16004
lowerback -2.97416 -1.73559 -0.19845
upperback -3.53541 -2.31046 0.739701
thorax -1.92242 -1.14565 0.840504
lowerneck -10.7114 -1.69853 -4.00305
upperneck 37.1231 -2.12157 1.07994
head 14.6671 -1.42453 0.810876
rclavicle -3.42407e-014 -3.97569e-016
rhumerus -49.2773 8.04166 -80.8032
rradius 85.0382
rwrist 8.91605
rhand -27.723 -36.9574
rfingers 7.12502
rthumb -1.11835 -786.934
lclavicle -3.42407e-014 -3.97569e-016
lhumerus -47.8335 -9.76153 81.3686
lradius 69.1309
lwrist -4.32117
lhand -30.5469 -42.8793
lfingers 7.12502
lthumb -3.84559 -12.9342
rfemur -70.7104 10.165 24.9023
rtibia 118.217
rfoot -3.37806 -15.1421
rtoes 1.98052
lfemur -25.546 -2.92727 -20.2756
ltibia 27.8985
lfoot 5.84835 5.22402
ltoes -4.71036
1372
root 2.94498 18.1333 4.50459 9.27983 -8.90528 -4.13232
lowerback -2.97922 -1.58822 -0.0619976
upperback -3.361 -2.1164 0.703912
thorax -1.74909 -1.05246 0.726519
lowerneck -11.2483 -1.73451 -3.92465
upperneck 37.2964 -2.05169 0.761891
head 14.8683 -1.42433 0.671286
rclavicle -6.30675e-015 -1.63003e-014
rhumerus -49.0104 7.48141 -81.1612
rradius 84.7964
rwrist 8.84698
rhand -28.1653 -37.3761
rfingers 7.12502
rthumb -1.5456 -787.35
lclavicle -6.30675e-015 -1.63003e-014
lhumerus -47.748 -9.58237 81.2906
lradius 69.0245
lwrist -4.41321
lhand -30.5741 -42.9508
lfingers 7.12502
lthumb -3.87188 -13.0062
rfemur -71.1568 10.7134 24.9989
rtibia 118.748
rfoot -3.53188 -15.5834
rtoes 1.74284
lfemur -26.0408 -1.85184 -20.4393
ltibia 29.7054
lfoot 1.35969 3.22314
ltoes -15.792
1373
root 2.95147 17.9485 4.55493 8.78552 -9.35556 -3.98963
lowerback -2.81163 -1.46816 -0.109094
upperback -3.15684 -1.95558 0.683502
thorax -1.63383 -0.971491 0.735302
lowerneck -12.1827 -1.72523 -3.79524
upperneck 37.5688 -1.92257 0.479571
head 15.2117 -1.38689 0.542092
rclavicle 2.02512e-014 7.95139e-016
rhumerus -48.5637 6.98323 -81.4592
rradius 84.3976
rwrist 9.00125
rhand -28.0941 -34.7193
rfingers 7.12502
rthumb -1.47676 -784.694
lclavicle 2.02512e-014 7.95139e-016
lhumerus -47.7558 -9.30638 81.2394
lradius 69.056
lwrist -4.61539
lhand -30.8957 -42.511
lfingers 7.12502
lthumb -4.18245 -12.5723
rfemur -71.4586 11.3187 24.9276
rtibia 119.288
rfoot -3.78034 -16.0266
rtoes 2.29822
lfemur -26.2003 -0.401611 -20.9135
ltibia 31.9134
lfoot -1.60369 0.669148
ltoes -14.7864
1374
root 2.95353 17.7257 4.58861 8.24269 -9.70108 -3.76107
lowerback -2.28514 -1.41497 -0.329046
upperback -3.02905 -1.88194 0.652745
thorax -1.79209 -0.929985 0.840131
lowerneck -13.0034 -1.70697 -3.87676
upperneck 37.6907 -1.88003 0.610541
head 15.469 -1.35948 0.612193
rclavicle -2.29612e-014 -7.55382e-015
rhumerus -48.2935 6.51758 -81.7903
rradius 84.298
rwrist 9.23749
rhand -26.7554 -35.4742
rfingers 7.12502
rthumb -0.183819 -785.454
lclavicle -2.29612e-014 -7.55382e-015
lhumerus -47.7856 -9.08607 81.1283
lradius 69.2173
lwrist -4.76091
lhand -30.9369 -41.9271
lfingers 7.12502
lthumb -4.22219 -11.9892
rfemur -72.2661 11.8117 24.8097
rtibia 120.087
rfoot -3.70715 -16.3646
rtoes 3.64989
lfemur -25.9741 1.00649 -21.5081
ltibia 34.0334
lfoot -5.03832 -0.937935
ltoes -17.1239
1375
root 2.95524 17.537 4.60791 7.76526 -9.94924 -3.79372
lowerback -1.43014 -1.36884 -0.322626
upperback -3.13539 -1.81995 0.70154
thorax -2.38086 -0.8957 0.912084
lowerneck -13.0482 -1.67279 -4.09866
upperneck 37.5121 -1.87347 0.91498
head 15.3975 -1.34396 0.782062
rclavicle -3.50055e-014 1.74931e-014
rhumerus -48.4903 6.18266 -82.2152
rradius 84.5664
rwrist 9.32933
rhand -26.4813 -36.3814
rfingers 7.12502
rthumb 0.0808973 -786.361
lclavicle -3.50055e-014 1.74931e-014
lhumerus -48.1097 -8.91103 81.0453
lradius 69.5284
lwrist -4.95561
lhand -30.8645 -41.7655
lfingers 7.12502
lthumb -4.15234 -11.8262
rfemur -73.0081 12.235 24.9866
rtibia 120.519
rfoot -3.43984 -16.5488
rtoes 4.08296
lfemur -26.828 1.99271 -21.6284
ltibia 36.4988
lfoot -7.58272 -1.79604
ltoes -12.1002
1376
root 2.96318 17.3999 4.63126 7.17932 -10.0687 -4.0162
lowerback -0.579803 -1.33737 0.009413
upperback -3.17365 -1.77268 0.764697
thorax -2.90748 -0.877021 0.814429
lowerneck -12.8939 -1.68783 -4.19904
upperneck 37.1912 -1.89696 0.986481
head 15.206 -1.35486 0.826923
rclavicle -1.50517e-014 -1.07344e-014
rhumerus -48.6413 5.73748 -82.7056
rradius 84.8053
rwrist 9.49358
rhand -26.3236 -38.2509
rfingers 7.12502
rthumb 0.23324 -788.231
lclavicle -1.50517e-014 -1.07344e-014
lhumerus -48.3958 -8.81359 81.0525
lradius 69.7698
lwrist -5.13256
lhand -31.1661 -42.3163
lfingers 7.12502
lthumb -4.44356 -12.3829
rfemur -73.0143 12.5025 25.3631
rtibia 120.406
rfoot -3.2244 -16.7184
rtoes 2.97571
lfemur -27.4789 2.83271 -21.5645
ltibia 38.9591
lfoot -9.70036 -1.94246
ltoes -6.40351
1377
root 2.97526 17.2206 4.65788 6.40448 -9.96709 -3.86692
lowerback 0.177837 -1.38213 0.171345
upperback -2.95331 -1.82993 0.634894
thorax -3.11548 -0.910582 0.608874
lowerneck -13.3315 -1.73689 -4.14346
upperneck 37.0753 -1.95244 0.963972
head 15.2536 -1.36909 0.795217
rclavicle 4.35773e-015 1.19271e-015
rhumerus -48.3496 4.95322 -83.2735
rradius 84.9285
rwrist 9.8031
rhand -25.9165 -39.7298
rfingers 7.12502
rthumb 0.626425 -789.709
lclavicle 4.35773e-015 1.19271e-015
lhumerus -48.082 -8.93946 80.9979
lradius 69.8126
lwrist -5.08212
lhand -31.3706 -42.765
lfingers 7.12502
lthumb -4.64095 -12.8359
rfemur -73.1424 12.3893 25.2936
rtibia 120.664
rfoot -3.41862 -16.7441
rtoes 2.11552
lfemur -27.9241 3.5368 -21.9981
ltibia 41.4263
lfoot -12.0351 -1.84813
ltoes -1.94032
1378
root 2.98801 17.0356 4.685 5.56511 -9.92488 -3.51578
lowerback 0.866356 -1.45032 0.182557
upperback -2.62763 -1.92382 0.408236
thorax -3.17491 -0.960031 0.386612
lowerneck -14.0936 -1.68814 -4.11018
upperneck 37.264 -1.9084 1.11566
head 15.5274 -1.32268 0.856483
rclavicle -1.58375e-014 5.56597e-015
rhumerus -47.7341 4.0726 -83.9157
rradius 84.9344
rwrist 10.0266
rhand -25.34 -40.2375
rfingers 7.12502
rthumb 1.18316 -790.214
lclavicle -1.58375e-014 5.56597e-015
lhumerus -47.4763 -9.05002 80.758
lradius 69.8838
lwrist -5.04358
lhand -31.2039 -42.9957
lfingers 7.12502
lthumb -4.47998 -13.063
rfemur -73.3743 12.2298 24.9254
rtibia 121.008
rfoot -3.68897 -16.4867
rtoes 1.78413
lfemur -27.9999 4.18094 -22.6664
ltibia 43.5078
lfoot -14.8394 -1.4857
ltoes -0.546781
1379
root 2.99451 16.8558 4.70848 4.68291 -10.0555 -3.43607
lowerback 1.57597 -1.50456 0.321973
upperback -2.3024 -1.99111 0.334994
thorax -3.24672 -0.997078 0.251008
lowerneck -14.5255 -1.5732 -4.29312
upperneck 37.3526 -1.75299 1.37313
head 15.6748 -1.24651 1.02398
rclavicle -5.69409e-014 4.77083e-015
rhumerus -47.1668 3.47493 -84.4498
rradius 84.8677
rwrist 10.0959
rhand -25.2246 -40.5965
rfingers 7.12502
rthumb 1.29468 -790.572
lclavicle -5.69409e-014 4.77083e-015
lhumerus -47.042 -8.93461 80.5094
lradius 70.1275
lwrist -5.33722
lhand -31.0815 -43.2989
lfingers 7.12502
lthumb -4.36181 -13.3638
rfemur -73.6222 12.37 24.8506
rtibia 121.253
rfoot -3.85627 -16.0186
rtoes 1.89116
lfemur -27.849 4.63466 -22.9272
ltibia 45.2321
lfoot -17.5419 -0.750471
ltoes 0.251997
1380
root 2.99725 16.6856 4.72481 3.86343 -10.1545 -3.11972
lowerback 2.33162 -1.55196 0.0847893
upperback -2.17944 -2.06063 0.306916
thorax -3.53903 -1.02506 0.37867
lowerneck -14.6112 -1.50498 -4.61528
upperneck 37.4679 -1.60252 1.52647
head 15.7541 -1.20995 1.1736
rclavicle -1.25669e-014 -5.56597e-015
rhumerus -47.0557 3.16191 -84.7207
rradius 84.9179
rwrist 9.92867
rhand -25.2664 -42.158
rfingers 7.12502
rthumb 1.2543 -792.134
lclavicle -1.25669e-014 -5.56597e-015
lhumerus -47.016 -8.85248 80.4949
lradius 70.445
lwrist -5.83234
lhand -31.2518 -43.2941
lfingers 7.12502
lthumb -4.52626 -13.3625
rfemur -74.1772 12.3512 24.4503
rtibia 121.561
rfoot -4.28245 -15.2297
rtoes 1.98894
lfemur -27.661 4.67731 -23.4103
ltibia 46.6677
lfoot -19.8396 0.502512
ltoes 2.74721
1381
root 2.99285 16.5153 4.73365 3.41049 -10.3137 -1.33921
lowerback 2.64635 -1.59174 -1.88246
upperback -2.19496 -2.2098 -0.0322959
thorax -3.67297 -1.05202 1.14773
lowerneck -15.29 -1.46888 -4.71104
upperneck 37.8294 -1.4777 1.51486
head 16.0997 -1.17627 1.20817
rclavicle 3.25588e-014 9.54166e-015
rhumerus -46.9125 2.96574 -84.9283
rradius 85.1773
rwrist 9.70232
rhand -24.9429 -41.7447
rfingers 7.12502
rthumb 1.56674 -791.719
lclavicle 3.25588e-014 9.54166e-015
lhumerus -46.8412 -8.76986 80.4555
lradius 70.8158
lwrist -6.26054
lhand -31.4946 -43.7105
lfingers 7.12502
lthumb -4.76071 -13.784
rfemur -75.8935 11.656 22.2737
rtibia 122.353
rfoot -4.67825 -13.898
rtoes 0.931443
lfemur -27.9977 4.48407 -25.5821
ltibia 47.8572
lfoot -21.5116 2.58062
ltoes 3.20788
1382
root 2.97372 16.3791 4.7258 4.646 -10.3728 -0.915766
lowerback 1.55938 -1.58685 -2.68582
upperback -2.51102 -2.20756 0.0467123
thorax -3.35436 -1.03172 1.64828
lowerneck -15.9427 -1.56038 -4.76413
upperneck 37.9086 -1.56069 1.52047
head 16.3066 -1.21452 1.20404
rclavicle 4.75072e-014 7.95139e-016
rhumerus -46.8097 2.40607 -84.9679
rradius 85.6748
rwrist 9.68124
rhand -26.2005 -39.9312
rfingers 7.12502
rthumb 0.35211 -789.911
lclavicle 4.75072e-014 7.95139e-016
lhumerus -46.3451 -8.90078 80.4701
lradius 71.3151
lwrist -6.59644
lhand -31.4643 -44.8729
lfingers 7.12502
lthumb -4.73148 -14.9457
rfemur -79.1719 11.498 21.5073
rtibia 122.714
rfoot -4.0153 -13.155
rtoes -0.73305
lfemur -30.3119 4.44605 -26.3106
ltibia 49.2369
lfoot -22.1121 4.17783
ltoes 0.532787
